<svg width="96" height="96" viewBox="0 0 96 96" fill="none" xmlns="http://www.w3.org/2000/svg">
<rect width="96" height="96" fill="black"/>
<path d="M58.3916 45.2178C58.3916 45.2178 63.4802 41.3295 63.4802 34.5673C63.4802 20.7894 52.4405 18 42.8671 18H32V77H48.1282C57.5291 77 69 73.2808 69 59.9255C69 47.5 58.3916 45.2178 58.3916 45.2178ZM45.972 26.2837C49.1632 26.2837 54.683 27.5516 54.683 34.7364C54.683 41.9212 49.1631 43.3582 45.3683 43.3582H41.6597V26.2837H45.972ZM47.9557 68.6318H41.6597V55.7837L34.6737 50.712H47.1795C51.3193 50.712 59.8578 51.4728 59.8578 59.5874C59.8578 67.7865 51.2331 68.6318 47.9557 68.6318V68.6318Z" fill="#FCFCFC"/>
</svg>
